HIERARCHY
ROOT Hips
{
  OFFSET -35.2597 29.1586 114.425
  CHANNELS 6 Xposition Yposition Zposition Zrotation Xrotation Yrotation
  JOINT LeftUpLeg
  {
    OFFSET 8.64259 1.95398 -2.38835
    CHANNELS 3 Zrotation Xrotation Yrotation
    JOINT LeftLeg
    {
      OFFSET 43.7702 0 0
      CHANNELS 3 Zrotation Xrotation Yrotation
      JOINT LeftFoot
      {
        OFFSET 40.6238 0 0
        CHANNELS 3 Zrotation Xrotation Yrotation
        JOINT LeftToeBase
        {
          OFFSET 12.7242 0 0
          CHANNELS 3 Zrotation Xrotation Yrotation
          End Site
          {
            OFFSET 0 0 0
          }
        }
      }
    }
  }
  JOINT RightUpLeg
  {
    OFFSET -8.2249 1.95398 -2.59336
    CHANNELS 3 Zrotation Xrotation Yrotation
    JOINT RightLeg
    {
      OFFSET 43.5653 0 0
      CHANNELS 3 Zrotation Xrotation Yrotation
      JOINT RightFoot
      {
        OFFSET 40.6238 0 0
        CHANNELS 3 Zrotation Xrotation Yrotation
        JOINT RightToeBase
        {
          OFFSET 12.7242 0 0
          CHANNELS 3 Zrotation Xrotation Yrotation
          End Site
          {
            OFFSET 0 0 0
          }
        }
      }
    }
  }
  JOINT Spine
  {
    OFFSET 0.165834 0.87714 6.61349
    CHANNELS 3 Zrotation Xrotation Yrotation
    JOINT Spine1
    {
      OFFSET 7.38963 1.71661e-005 0
      CHANNELS 3 Zrotation Xrotation Yrotation
      JOINT Spine2
      {
        OFFSET 11.9445 1.14441e-005 0
        CHANNELS 3 Zrotation Xrotation Yrotation
        JOINT Spine3
        {
          OFFSET 14.7254 4.19617e-005 0
          CHANNELS 3 Zrotation Xrotation Yrotation
          JOINT Spine4
          {
            OFFSET 10.9679 0 0
            CHANNELS 3 Zrotation Xrotation Yrotation
            JOINT RightShoulder
            {
              OFFSET 2.46616 -1.6653 3.69651
              CHANNELS 3 Zrotation Xrotation Yrotation
              JOINT RightArm
              {
                OFFSET 13.0012 0 0
                CHANNELS 3 Zrotation Xrotation Yrotation
                JOINT RightForeArm
                {
                  OFFSET 28.7848 1.62311e-005 0
                  CHANNELS 3 Zrotation Xrotation Yrotation
                  JOINT RightHand
                  {
                    OFFSET 26.5688 1.62095e-005 0
                    CHANNELS 3 Zrotation Xrotation Yrotation
                    End Site
                    {
                      OFFSET 0 0 0
                    }
                  }
                }
              }
            }
            JOINT LeftShoulder
            {
              OFFSET 2.38034 -1.29275 -3.7523
              CHANNELS 3 Zrotation Xrotation Yrotation
              JOINT LeftArm
              {
                OFFSET 16.3182 6.07031e-005 0
                CHANNELS 3 Zrotation Xrotation Yrotation
                JOINT LeftForeArm
                {
                  OFFSET 27.0901 0 0
                  CHANNELS 3 Zrotation Xrotation Yrotation
                  JOINT LeftHand
                  {
                    OFFSET 24.5451 1.51738e-005 0
                    CHANNELS 3 Zrotation Xrotation Yrotation
                    End Site
                    {
                      OFFSET 0 0 0
                    }
                  }
                }
              }
            }
            JOINT Neck
            {
              OFFSET 5.0226 -0.0266342 0
              CHANNELS 3 Zrotation Xrotation Yrotation
              JOINT Head
              {
                OFFSET 6.69364 2.86102e-005 0
                CHANNELS 3 Zrotation Xrotation Yrotation
                End Site
                {
                  OFFSET 0 0 0
                }
              }
            }
          }
        }
      }
    }
  }
}
MOTION
Frames:	17
Frame Time:	0.0416667
-146.759 85.6795 -120.876 70.567 -33.9694 76.2405 -169.227 0.434116 89.8686 -28.2128 13.8497 -3.56533 96.215 27.5441 -2.90262 40.5201 4.32757 3.75208 -164.649 63.2177 85.1219 -89.6642 4.47566 -5.96955 83.7777 -15.1372 -6.7878 20.5791 -0.38 10.5325 -3.2097 8.44185 -89.6322 10.0344 -6.22908 1.24667 -1.62243 -6.16817 1.5206 -24.2779 -6.31466 -0.690732 -4.26528 -6.31466 -0.690734 98.6617 -31.1918 -89.1179 6.4919 23.0866 62.7805 -129.318 -40.4549 -117.43 -46.7862 10.9609 -30.5624 -84.367 -19.1348 81.6244 -20.1135 -14.4118 -53.818 54.2437 16.7716 -79.164 53 -15.9382 -34.0775 32.2198 6.69757 -11.2801 -4.37361 11.1269 -2.09366 
-137.72 87.8171 -114.325 68.1798 -38.2348 78.7875 -170.834 -9.50148 90.2775 -15.2164 12.9371 -1.45038 74.3829 13.941 1.44422 53.3161 10.5451 1.73278 -167.765 66.2654 91.229 -73.75 -0.799421 -5.58023 82.6413 -13.9242 -5.56405 19.0099 1.01459 8.21372 -3.33389 8.60888 -90.4466 9.65934 -6.84817 -0.353551 -1.99343 -6.85704 -0.0503622 -24.6608 -6.42399 -2.40387 -4.64819 -6.42399 -2.40387 98.3631 -26.7922 -90.2773 3.63624 23.6617 73.7549 -113.921 -37.8015 -105.263 -45.1039 12.433 -34.9455 -82.2303 -10.1991 84.5409 -20.7014 -19.657 -46.12 51.8645 9.18717 -83.8365 52.6347 -16.0639 -34.5463 40.1738 10.0361 -9.71635 -9.08854 14.2179 -0.626453 
-127.624 90.1711 -107.123 67.104 -43.6831 81.5521 -173.736 -12.8307 90.8321 -14.362 11.5151 1.23511 53.4219 -2.82811 2.29963 47.945 11.7648 -12.205 -176.108 62.6193 101.212 -56.0248 -10.1152 -2.63365 77.7662 -11.0038 -3.0798 22.7849 0.164878 6.82414 -2.98877 8.85772 -91.2135 9.10615 -6.5036 -1.94458 -2.5495 -6.58288 -1.65536 -25.1767 -5.61808 -3.81393 -5.16401 -5.61809 -3.81393 92.7489 -23.5475 -103.438 18.1241 18.9394 76.7261 -79.9715 -47.6165 -82.4526 -53.536 13.5546 -32.0021 -82.0698 -9.03379 84.6746 -20.5966 -18.966 -41.8875 50.6401 7.78642 -84.6042 50.7357 -17.6392 -38.7043 43.2307 13.0265 -7.13526 -11.1903 15.7877 1.10632 
-118.408 91.0203 -99.6992 66.4231 -47.4792 81.4448 -174.264 -13.0265 89.1081 -22.658 18.3273 0.99017 52.6297 -4.79119 2.60466 18.3575 -6.26592 1.79702 177.681 57.6191 106.572 -45.4659 -16.3539 1.3816 76.8182 -11.1185 -2.9406 26.8881 -1.32261 6.86758 -2.61343 8.82615 -91.6221 9.14523 -5.93787 -2.79119 -2.51458 -6.0549 -2.52647 -25.1036 -4.82491 -4.44842 -5.09095 -4.8249 -4.44843 88.4957 -19.8001 -114.848 36.895 16.2466 74.7773 -48.2501 -40.6309 -59.3799 -55.4625 14.5489 -32.7892 -83.0084 -14.8025 83.6959 -19.9054 -10.7364 -36.3825 54.42 6.5513 -86.4989 49.4346 -16.5393 -37.521 39.3516 15.807 -2.72331 -8.80487 16.1153 1.02913 
-110.297 90.5772 -92.6631 68.1841 -48.3601 80.1801 -172.002 -9.94468 88.4035 -38.8636 21.1105 -1.65006 53.9812 -3.85621 1.77036 29.8288 2.57317 -4.52784 173.991 51.9444 106.171 -44.5777 -10.0767 3.82638 76.5307 -10.5393 -2.42251 27.7014 -1.55143 6.62738 -2.5606 8.88008 -91.6067 9.04035 -5.82476 -2.77514 -2.61993 -5.94119 -2.51546 -25.2061 -4.72184 -4.39896 -5.19345 -4.72184 -4.39895 86.2493 -29.4749 -114.401 33.4817 15.6146 68.2246 -42.8185 -30.1306 -61.2427 -53.9274 15.054 -34.6303 -85.184 -25.8273 81.679 -19.8945 1.14437 -24.7182 63.7283 3.20563 -89.8149 55.256 -13.7664 -28.9734 40.3332 17.1855 -1.41528 -9.70388 16.7255 2.00967 
-102.15 90.634 -85.338 71.6838 -49.2507 81.6986 -167.976 -0.470461 88.5913 -60.1965 15.154 -2.23216 49.6159 -7.15029 1.21394 26.495 3.45908 -9.26206 171.766 44.6163 104.14 -48.1579 -8.49997 5.49176 74.8173 -8.62981 -1.92378 18.0821 2.50425 5.38687 -2.35394 9.01556 -91.5949 8.77125 -5.40447 -2.79927 -2.89095 -5.52239 -2.55824 -25.4646 -4.31386 -4.29498 -5.45197 -4.31385 -4.29499 86.608 -36.724 -110.504 29.5587 15.157 51.7822 -43.0533 -27.9699 -63.1691 -55.4739 15.2108 -34.0002 -87.7447 -38.6588 79.8083 -22.0398 8.33356 -8.37973 71.5207 0.238809 -91.5635 53.0145 -14.273 -31.0574 38.5826 17.4353 -0.0503338 -6.7625 16.3604 2.19014 
-94.4398 90.2737 -78.0466 72.0009 -52.0386 83.8457 -163.854 10.3795 93.7126 -79.2182 6.79282 -0.483163 53.1317 -4.78398 3.96243 24.8257 2.0483 -7.78732 171.096 37.587 105.459 -51.6333 -10.0958 5.53196 80.2633 -12.8343 -1.43278 22.2517 0.559981 6.25566 -1.75819 8.94338 -91.9819 8.90502 -4.38975 -3.62548 -2.76303 -4.54496 -3.42875 -25.2913 -3.09854 -4.77594 -5.27867 -3.09853 -4.77594 87.6822 -37.5092 -108.294 30.4785 12.8218 36.3259 -38.2519 -21.0294 -65.4922 -53.7775 15.5183 -35.6096 -89.0362 -49.9399 80.1582 -25.3639 8.68032 19.6481 72.7785 -6.48768 -93.9358 46.1664 -13.6505 -33.9188 33.4324 17.9069 5.08634 -2.11891 14.8492 0.718252 
-87.3411 89.5614 -71.5985 69.3269 -59.1666 83.27 -161.889 26.1648 95.289 -94.2848 7.58039 1.63437 58.8215 -0.644912 8.01701 21.2971 1.7755 -10.0082 174.171 30.9669 106.569 -52.5244 -12.2598 3.81248 85.5979 -17.1475 -0.922029 23.6337 -0.519712 7.91857 -0.5669 8.83263 -92.0359 9.15906 -2.04174 -3.88797 -2.51586 -2.21073 -3.79451 -25.0071 -0.780118 -4.32102 -4.99441 -0.780113 -4.32102 87.4416 -37.0715 -108.886 30.4361 9.86826 21.9089 -38.1023 -14.313 -73.1787 -58.898 15.5664 -32.6742 -87.494 -51.2944 82.7103 -25.817 0.401594 55.7033 76.2809 -19.0415 -96.7256 43.7701 -13.9108 -36.1749 30.482 16.7833 6.72223 -0.457914 13.3214 1.67346 
-80.322 88.8417 -64.6977 66.7125 -64.7271 79.2014 -164.897 39.5712 95.9928 -101.588 12.7455 2.98959 65.6512 4.80782 11.6374 18.878 -0.309641 -8.04214 177.941 23.3467 103.63 -51.9015 -12.8697 0.730196 90.1966 -20.7967 0.0438297 29.2559 -1.9875 6.27504 0.695957 8.57405 -91.625 9.72547 0.652216 -3.27684 -1.94951 0.507438 -3.30235 -24.4583 1.6065 -2.92986 -4.44563 1.60649 -2.92987 87.4097 -33.8984 -110.172 28.0787 10.3032 10.7365 -30.9196 -6.58621 -82.0976 -60.381 17.5161 -35.1232 -84.9755 -45.8013 85.7143 -21.2962 -14.351 82.1045 80.6327 -26.1111 -96.6172 48.667 -19.8737 -44.2834 26.2911 13.9919 7.64177 1.57594 10.6273 0.882305 
-72.5918 89.1055 -57.1843 67.5091 -65.7353 75.4482 -171.352 48.603 95.8835 -98.4652 7.69283 3.52944 71.6793 8.52708 10.1312 20.1723 0.289959 -8.13465 178.354 12.9636 96.7276 -47.2522 -14.5665 -2.03171 91.0159 -22.6468 -1.16131 32.5954 -3.23809 6.60725 1.91005 8.27915 -91.126 10.35 3.2899 -2.52422 -1.31957 3.17565 -2.66658 -23.8799 3.89623 -1.41801 -3.8673 3.89622 -1.41802 90.0863 -27.6652 -107.474 25.4192 19.0378 7.2134 -32.3884 0.136227 -90.935 -60.1269 18.5134 -36.9368 -83.684 -37.6552 86.7255 -6.96041 -34.8454 103.464 91.3868 -30.5301 -92.0303 38.3139 -25.4191 -66.4233 20.8826 8.93178 9.53718 4.0193 5.5131 -0.877685 
-63.6604 90.7908 -48.5166 72.8007 -61.637 75.8187 -179.027 52.7365 94.7864 -86.9172 5.60241 3.95997 76.0472 11.3215 9.6106 21.5035 -0.354519 -5.92847 174.934 -0.712245 89.5911 -36.0242 -19.3967 -3.3134 81.0087 -17.3018 -5.20901 41.0812 -5.71334 3.90041 2.76568 8.201 -90.6393 10.5182 5.21545 -1.73542 -1.14373 5.13403 -1.96378 -23.7629 5.49522 -0.0831714 -3.7503 5.49522 -0.0831686 94.6711 -15.3185 -102.049 25.3874 21.6994 15.1127 -29.0006 3.89005 -101.315 -69.2278 18.7474 -32.3301 -83.7189 -27.1188 84.9024 -7.36849 -36.34 103.973 96.5452 -33.0348 -89.2936 35.9824 -25.7693 -70.8642 20.2399 2.37547 7.53396 3.27293 -0.0465693 0.586965 
-53.7931 93.1399 -38.4855 75.9039 -55.2435 74.3419 177.074 52.6034 90.6795 -69.5375 6.85878 3.97906 82.4259 15.7656 5.36072 17.3967 -4.64345 -2.0053 171.712 -11.8725 84.1955 -23.565 -18.5951 -4.2035 62.6345 -3.06034 -3.04954 43.2792 -7.03112 7.63476 3.13375 8.09412 -89.9621 10.7145 6.25821 -0.499786 -0.941485 6.23014 -0.775815 -23.5945 6.11798 1.41148 -3.58187 6.11795 1.41147 96.5807 -7.86882 -99.8196 25.2245 23.913 28.5309 -20.0609 5.3442 -110.897 -64.9806 23.1495 -41.2204 -83.9634 -21.4425 83.1635 -12.854 -28.8084 97.4486 86.1599 -32.4326 -94.7401 35.5653 -24.9782 -69.7911 23.6112 -3.56236 3.62079 -1.57671 -4.64048 1.93995 
-43.7003 95.109 -27.7967 75.3651 -50.9097 70.7349 178.585 50.3015 86.3326 -50.5401 12.0596 1.77075 80.0604 14.8968 4.03141 19.7652 -6.04199 2.30641 170.268 -16.9499 81.8947 -21.2333 -18.6053 -5.59323 53.9245 4.32693 -1.45182 21.8816 -0.164175 8.75661 3.34984 7.88345 -89.1733 11.096 7.05162 0.960888 -0.555816 7.08704 0.648037 -23.2223 6.43558 3.04405 -3.20961 6.43556 3.04405 96.7571 -4.96636 -100.639 24.7864 23.6155 38.4654 -23.0722 8.06827 -114.979 -68.8429 24.5519 -40.7362 -84.147 -19.1651 82.2086 -15.8684 -23.9315 93.0131 79.4147 -32.0916 -98.2389 35.4579 -25.0398 -70.066 26.2999 -7.60885 1.17972 -7.25342 -7.6967 -0.568342 
-34.1466 95.7274 -18.1342 74.2626 -48.8755 69.9935 -177.386 46.8436 84.3238 -34.5457 13.8623 -2.04843 75.0926 11.4646 3.12847 26.2067 -2.83494 2.96575 170.432 -17.9971 82.9396 -28.0377 -19.5287 -4.48225 55.2962 2.96728 -0.569796 17.9115 1.62178 7.65737 3.35662 7.63331 -88.9055 11.5764 7.18957 1.44032 -0.0750063 7.24593 1.12089 -22.7379 6.42322 3.54237 -2.72529 6.4232 3.54236 96.4148 -5.79511 -101.333 25.2503 16.2671 40.3129 -27.4918 10.1295 -114.82 -66.1291 25.079 -43.2875 -84.3399 -24.1335 82.9597 -15.9107 -25.007 90.8792 82.3611 -33.9045 -96.9226 36.7247 -25.9298 -70.1786 24.2957 -9.3607 -0.013288 -5.9307 -8.90539 -1.8841 
-24.8106 95.5914 -9.13902 76.3994 -48.5577 73.7898 -172.202 41.8912 83.6255 -29.7177 9.02852 -6.0846 74.9274 10.1063 -0.264129 24.5458 -6.12989 7.19598 173.246 -16.1566 87.2984 -44.217 -20.5504 -4.30364 56.2383 2.36464 0.073601 19.5835 0.655407 8.62105 3.20876 7.5929 -89.0476 11.668 6.829 1.18582 0.0147366 6.87456 0.882707 -22.639 6.15587 3.19046 -2.62635 6.15589 3.19047 94.8557 -11.5699 -103.218 26.9826 4.19972 39.3431 -30.0057 9.20508 -110.978 -66.7136 23.1018 -40.0068 -84.2689 -32.5768 84.8344 -17.7679 -21.4904 83.6357 84.9333 -33.1653 -95.449 43.1303 -25.6924 -61.285 23.4905 -10.0912 -2.05789 -5.53262 -8.95436 -1.19357 
-15.6067 94.9187 -0.114198 81.6003 -47.9343 78.1724 -168.757 33.9851 83.2854 -30.3625 -0.058735 -8.68259 69.516 5.5851 -1.18536 29.4827 -1.24098 3.33567 173.592 -11.3601 88.7757 -65.1364 -17.2885 -3.72377 58.3865 1.12664 -2.27892 16.2222 0.516421 11.8695 2.83154 7.86973 -89.0223 11.1078 6.0898 1.35613 -0.549323 6.14357 1.08581 -23.1737 5.4001 3.12823 -3.16107 5.40008 3.12822 92.0947 -20.523 -106.134 31.2677 -2.86488 41.3389 -34.7872 5.55327 -102.931 -67.5927 18.5604 -32.8431 -85.1471 -42.0148 84.8676 -19.3512 -17.967 73.9998 87.3357 -33.0442 -94.1628 45.2605 -22.154 -52.0749 24.0775 -10.2018 -4.96446 -6.24273 -8.02622 -1.4243 
-6.53621 94.0562 8.52518 84.814 -45.2701 79.2241 -167.806 28.0887 82.172 -35.8512 -1.22348 -9.96314 69.0857 5.07437 1.27781 22.9636 -2.55867 -0.757164 171.484 -1.93368 90.338 -84.1018 -5.83126 -2.68577 60.889 -1.47053 -3.65217 14.6002 1.61953 10.4811 2.09835 8.13477 -88.7924 10.5649 4.73436 1.97494 -1.09857 4.81666 1.76427 -23.6731 3.92198 3.30766 -3.66048 3.922 3.30768 91.1409 -27.245 -105.515 40.8872 -9.48932 37.2946 -28.9391 -1.65357 -85.3432 -66.8042 16.2186 -29.854 -87.1092 -52.5068 83.473 -20.3961 -13.6226 55.1595 82.7523 -29.2889 -96.1265 46.4987 -19.6504 -45.9983 25.4989 -10.0006 -8.39367 -6.145 -6.57889 -0.213404 
